<?xml version="1.0" encoding="utf-8"?>
<!-- Generator: Adobe Illustrator 19.0.1, SVG Export Plug-In . SVG Version: 6.00 Build 0)  -->
<svg version="1.1" id="Layer_1" xmlns="http://www.w3.org/2000/svg" xmlns:xlink="http://www.w3.org/1999/xlink" x="0px" y="0px"
	 viewBox="0 0 319.3 82.3" style="enable-background:new 0 0 319.3 82.3;" xml:space="preserve">
<style type="text/css">
	.st0{fill-rule:evenodd;clip-rule:evenodd;fill:#FFFFFF;}
</style>
<g>
	<path class="st0" d="M99.3,33.6c0-2.2-0.8-4.2-2.4-5.8c-1.6-1.6-3.5-2.4-5.8-2.4v30.7c0,2.2,0.8,4.2,2.4,5.8
		c1.6,1.6,3.5,2.4,5.8,2.4V33.6z"/>
	<path class="st0" d="M134.1,44.9c0-3.2-1.1-5.9-3.4-8.3c-2.2-2.3-4.9-3.5-8.1-3.5c-3.2,0-5.9,1.2-8.2,3.5c-2.2,2.3-3.4,5.1-3.4,8.3
		v11.2c0,2.2-0.8,4.2-2.4,5.8c-1.6,1.6-3.5,2.4-5.8,2.4V44.9c0-5.4,1.9-10,5.8-13.8c3.9-3.8,8.5-5.7,13.9-5.7c5.4,0,10,1.9,13.9,5.7
		c3.9,3.8,5.8,8.4,5.8,13.8v19.4c-2.2,0-4.2-0.8-5.8-2.4c-1.6-1.6-2.4-3.5-2.4-5.8V44.9z"/>
	<path class="st0" d="M163.1,41h14.2c0,2.2-0.8,4-2.3,5.5c-1.5,1.5-3.4,2.3-5.5,2.3h-6.5c-1.1,0-2-0.4-2.7-1.1
		c-0.7-0.7-1.1-1.6-1.1-2.7c0-1.1,0.4-2,1.1-2.8C161.1,41.3,162,41,163.1,41z M154.4,44.8c0-3.2,1.1-6,3.4-8.2
		c2.2-2.3,5-3.4,8.2-3.4h3.7c2.1,0,4-0.8,5.5-2.3c1.5-1.5,2.3-3.3,2.3-5.5h-11.5c-5.4,0-10,1.9-13.9,5.7c-3.9,3.8-5.8,8.4-5.8,13.7
		v19.5c2.2,0,4.2-0.8,5.8-2.4c1.6-1.6,2.4-3.5,2.4-5.8V44.8z"/>
	<path class="st0" d="M198.2,25.4c5.4,0,10,1.9,13.9,5.7c3.9,3.8,5.8,8.4,5.8,13.8c0,5.4-1.9,10-5.8,13.7c-3.9,3.8-8.5,5.7-13.9,5.7
		c-5.4,0-10-1.9-13.9-5.7c-3.9-3.8-5.8-8.4-5.8-13.7c0-5.4,1.9-10,5.8-13.8C188.2,27.3,192.9,25.4,198.2,25.4z M198.2,33.1
		c-3.2,0-5.9,1.2-8.1,3.5c-2.2,2.3-3.3,5.1-3.3,8.3s1.1,6,3.3,8.2c2.2,2.3,4.9,3.4,8.1,3.4c3.2,0,5.9-1.1,8.2-3.4
		c2.2-2.3,3.4-5,3.4-8.2s-1.1-6-3.4-8.3C204.2,34.3,201.4,33.1,198.2,33.1z"/>
	<path class="st0" d="M252.6,26c0,2.1-0.8,4-2.3,5.5c-1.5,1.5-3.3,2.3-5.5,2.3h-7.8v30.6c-2.2,0-4.2-0.8-5.8-2.4
		c-1.6-1.6-2.4-3.5-2.4-5.8V33.7h-7.8c-2.1,0-4-0.8-5.5-2.3c-1.5-1.5-2.3-3.3-2.3-5.5H252.6z"/>
	<path class="st0" d="M270.5,64.3c-5.4,0-10-1.9-13.9-5.7c-3.9-3.8-5.8-8.4-5.8-13.7c0-5.4,1.9-10,5.8-13.8
		c3.9-3.8,8.5-5.7,13.9-5.7H282c0,2.1-0.8,4-2.3,5.5c-1.5,1.5-3.4,2.3-5.5,2.3h-3.7c-3.2,0-5.9,1.2-8.1,3.5
		c-2.2,2.3-3.4,5.1-3.4,8.3c0,3.2,1.1,5.9,3.4,8.2c2.2,2.3,4.9,3.5,8.1,3.5h3.7c2.1,0,4,0.8,5.5,2.3c1.5,1.5,2.3,3.3,2.3,5.5H270.5z
		 M267.8,41H282c0,2.2-0.8,4-2.3,5.5c-1.5,1.5-3.4,2.3-5.5,2.3h-6.5c-1.1,0-2-0.4-2.7-1.1c-0.7-0.7-1.1-1.6-1.1-2.7
		c0-1.1,0.4-2,1.1-2.8C265.8,41.3,266.7,41,267.8,41z"/>
	<path class="st0" d="M304.1,64.3c-5.4,0-10-1.9-13.9-5.7c-3.9-3.8-5.8-8.4-5.8-13.7c0-5.4,1.9-10,5.8-13.8
		c3.9-3.8,8.5-5.7,13.9-5.7h11.5c0,2.1-0.8,4-2.3,5.5c-1.5,1.5-3.3,2.3-5.5,2.3h-3.7c-3.2,0-5.9,1.2-8.2,3.5
		c-2.3,2.3-3.4,5.1-3.4,8.3s1.1,6,3.4,8.2c2.3,2.3,5,3.4,8.2,3.4h3.7c2.1,0,4,0.8,5.5,2.3c1.5,1.5,2.3,3.3,2.3,5.5H304.1z"/>
	<path class="st0" d="M3.8,41.2c0,8.5,2.7,16.5,7.9,23.2c2,2.6,5.6,3,8.2,1.1c2.6-2,3-5.6,1.1-8.2c-3.6-4.6-5.5-10.2-5.5-16
		c0-14.5,11.8-26.4,26.4-26.4c1.8,0,3.6,0.3,4.8,0.7c0,3.2,0,20.8,0,20.8c0,3.2,2.6,5.9,5.9,5.9c3.2,0,5.9-2.6,5.9-5.9V13.5
		c0-2-0.8-6.9-8-9.2c-3.6-1.2-7.4-1.3-8.5-1.3C20.8,3.1,3.8,20.2,3.8,41.2z"/>
	<path class="st0" d="M63.7,17.9c-2.3,2.2-2.4,5.9-0.2,8.3c3.5,3.7,4.8,10.4,4.8,15c0,14.5-11.8,26.4-26.4,26.4
		c-2.1,0-4-0.3-5.1-0.6c0-3.2,0-19.3,0-19.3c0-3.2-2.6-5.9-5.9-5.9c-3.2,0-5.9,2.6-5.9,5.9v21.3c0,2,0.8,7,8.2,9.2
		c3.4,1,7.1,1.1,8.6,1.1c21,0,38.1-17.1,38.1-38.1c0-3.5-0.6-15.3-8-23.1C69.7,15.7,66,15.6,63.7,17.9z"/>
</g>
</svg>
